<?xml version="1.0" encoding="UTF-8" standalone="no"?>
<svg
   width="204.30733"
   height="20.000027"
   viewBox="0 0 204.30733 20.000027"
   fill="none"
   stroke="#f04236"
   stroke-width="2"
   stroke-linecap="round"
   stroke-linejoin="round"
   class="lucide lucide-fish"
   version="1.1"
   id="svg6"
   xmlns="http://www.w3.org/2000/svg"
   xmlns:svg="http://www.w3.org/2000/svg">
  <defs
     id="defs6">
    <rect
       x="20.478422"
       y="0.94697905"
       width="22.372379"
       height="0"
       id="rect6" />
  </defs>
  <path
     d="m 5.5014564,10.000014 c 0.94,-3.4600003 4.9399996,-6.0000003 8.4999996,-6.0000003 3.56,0 6.06,2.54 7,6.0000003 -0.94,3.47 -3.44,6 -7,6 -3.56,0 -7.5599996,-2.53 -8.4999996,-6 z"
     id="path1" />
  <path
     d="m 17.001456,10.000014 v 0.5"
     id="path2" />
  <path
     d="m 15.001456,15.930014 a 9.77,9.77 0 0 1 0,-11.8600003"
     id="path3" />
  <path
     d="m 6.0014564,8.6700137 c 0,-2.67 -1.42,-4.7 -4.27,-5.17 -0.99999995,1.5 -0.99999995,5 0.23,6.5000003 -1.23999995,1.5 -1.23999995,5 -0.23,6.5 2.85,-0.47 4.27,-2.5 4.27,-5.17"
     id="path4" />
  <path
     d="m 9.4614564,5.2600137 c -0.26,-1.38 -1.29,-3.02 -2.46,-4.26 h 5.7999996 a 2,2 0 0 1 1.98,1.67 l 0.23,1.4"
     id="path5" />
  <path
     d="m 15.011456,15.930014 -0.23,1.4 a 2,2 0 0 1 -1.98,1.67 H 8.5014564 a 5.96,5.96 0 0 0 1.49,-3.98"
     id="path6" />
  <text
     xml:space="preserve"
     id="text6"
     style="font-size:25px;line-height:0;font-family:sans-serif;-inkscape-font-specification:sans-serif;text-align:start;letter-spacing:0px;writing-mode:lr-tb;direction:ltr;white-space:pre;shape-inside:url(#rect6);shape-padding:0;fill:#f04236;fill-opacity:1;stroke:#21d2ee;stroke-width:0"
     transform="translate(24.957359,19.000111)"><tspan
       x="0"
       y="0"
       id="tspan1">Salmon Donate</tspan></text>
</svg>
